<svg width="29" height="28" viewBox="0 0 29 28" fill="none" xmlns="http://www.w3.org/2000/svg">
<path d="M24.3155 8.4252C24.7232 9.02174 24.465 9.8708 23.7473 10.1996L9.58833 16.6849C8.88363 17.0077 8.11837 16.6531 7.95698 15.9501C7.53228 14.1001 7.63479 12.1573 8.27282 10.371C9.12042 7.99791 10.8416 6.10017 13.0505 5.08842C15.2585 4.07706 17.7785 4.0309 20.0585 4.96018C21.7755 5.65999 23.2534 6.87111 24.3155 8.4252Z" fill="#0075FF" stroke="#0062D5"/>
<path d="M19.4114 10.4854C20.1161 10.1626 20.8814 10.5172 21.0428 11.2202C21.4675 13.0702 21.365 15.013 20.727 16.7993C19.8793 19.1724 18.1582 21.0701 15.9493 22.0819C13.7413 23.0932 11.2213 23.1394 8.94127 22.2101C7.22425 21.5103 5.74633 20.2992 4.68427 18.7451C4.27659 18.1485 4.53475 17.2995 5.25249 16.9707L19.4114 10.4854Z" fill="#0075FF" fill-opacity="0.3" stroke="#0075FF"/>
</svg>
