<svg width="15" height="16" viewBox="0 0 15 16" fill="none" xmlns="http://www.w3.org/2000/svg">
<path d="M4.5 3.5C4.5 3.10218 4.65803 2.72064 4.93934 2.43934C5.22064 2.15804 5.60217 2 6 2H10.5C10.8978 2 11.2794 2.15804 11.5607 2.43934C11.842 2.72064 12 3.10218 12 3.5V11C12 11.3978 11.842 11.7794 11.5607 12.0607C11.2794 12.342 10.8978 12.5 10.5 12.5H6C5.60217 12.5 5.22064 12.342 4.93934 12.0607C4.65803 11.7794 4.5 11.3978 4.5 11V3.5ZM3 5C3.00001 4.7367 3.06932 4.47804 3.20097 4.25002C3.33262 4.022 3.52198 3.83265 3.75 3.701V11.375C3.75 11.8723 3.94754 12.3492 4.29917 12.7008C4.65081 13.0525 5.12772 13.25 5.625 13.25H10.299C10.1673 13.478 9.978 13.6674 9.74998 13.799C9.52196 13.9307 9.2633 14 9 14H5.625C4.92881 14 4.26113 13.7234 3.76884 13.2312C3.27656 12.7389 3 12.0712 3 11.375V5Z" fill="white"/>
</svg>
