<svg width="16" height="16" viewBox="0 0 16 16" fill="none" xmlns="http://www.w3.org/2000/svg">
<path d="M4.8631 2.75C4.26636 2.75 3.69406 2.98705 3.27211 3.40901C2.85015 3.83097 2.6131 4.40326 2.6131 5V11C2.6131 11.5967 2.85015 12.169 3.27211 12.591C3.69406 13.0129 4.26636 13.25 4.8631 13.25H7.5631C7.16647 12.4736 7.02605 11.5915 7.16198 10.7303C7.29792 9.86909 7.70323 9.07311 8.31972 8.45662C8.93621 7.84013 9.73219 7.43482 10.5934 7.29888C11.4546 7.16295 12.3367 7.30337 13.1131 7.7V5C13.1131 4.40326 12.876 3.83097 12.4541 3.40901C12.0321 2.98705 11.4598 2.75 10.8631 2.75H4.8631ZM11.2381 14.75C12.1332 14.75 12.9916 14.3944 13.6246 13.7615C14.2575 13.1285 14.6131 12.2701 14.6131 11.375C14.6131 10.4799 14.2575 9.62145 13.6246 8.98851C12.9916 8.35558 12.1332 8 11.2381 8C10.343 8 9.48455 8.35558 8.85161 8.98851C8.21868 9.62145 7.8631 10.4799 7.8631 11.375C7.8631 12.2701 8.21868 13.1285 8.85161 13.7615C9.48455 14.3944 10.343 14.75 11.2381 14.75ZM11.2381 9.5C11.3376 9.5 11.4329 9.53951 11.5033 9.60983C11.5736 9.68016 11.6131 9.77554 11.6131 9.875V11H12.7381C12.8376 11 12.9329 11.0395 13.0033 11.1098C13.0736 11.1802 13.1131 11.2755 13.1131 11.375C13.1131 11.4745 13.0736 11.5698 13.0033 11.6402C12.9329 11.7105 12.8376 11.75 12.7381 11.75H11.6131V12.875C11.6131 12.9745 11.5736 13.0698 11.5033 13.1402C11.4329 13.2105 11.3376 13.25 11.2381 13.25C11.1386 13.25 11.0433 13.2105 10.9729 13.1402C10.9026 13.0698 10.8631 12.9745 10.8631 12.875V11.75H9.7381C9.63864 11.75 9.54326 11.7105 9.47293 11.6402C9.40261 11.5698 9.3631 11.4745 9.3631 11.375C9.3631 11.2755 9.40261 11.1802 9.47293 11.1098C9.54326 11.0395 9.63864 11 9.7381 11H10.8631V9.875C10.8631 9.77554 10.9026 9.68016 10.9729 9.60983C11.0433 9.53951 11.1386 9.5 11.2381 9.5Z" fill="white"/>
</svg>
