<svg width="29" height="28" viewBox="0 0 29 28" fill="none" xmlns="http://www.w3.org/2000/svg">
<path d="M24.3154 8.42519C24.7231 9.02174 24.465 9.8708 23.7472 10.1996L9.58826 16.6849C8.88357 17.0077 8.11831 16.6531 7.95691 15.95C7.53222 14.1001 7.63473 12.1573 8.27276 10.371C9.12036 7.99791 10.8415 6.10017 13.0504 5.08842C15.2584 4.07706 17.7784 4.0309 20.0584 4.96018C21.7755 5.65999 23.2534 6.87111 24.3154 8.42519Z" fill="black" stroke="black"/>
<path d="M19.4115 10.4854C20.1162 10.1626 20.8815 10.5172 21.0429 11.2202C21.4676 13.0702 21.365 15.013 20.727 16.7993C19.8794 19.1724 18.1583 21.0701 15.9494 22.0819C13.7413 23.0932 11.2214 23.1394 8.94133 22.2101C7.22431 21.5103 5.74639 20.2992 4.68433 18.7451C4.27665 18.1485 4.53481 17.2995 5.25255 16.9707L19.4115 10.4854Z" fill="#9A9A9A" stroke="#454545"/>
</svg>
