<svg width="24" height="24" viewBox="0 0 24 24" fill="none" xmlns="http://www.w3.org/2000/svg">
<rect width="24" height="24" rx="4" fill="#12A858"/>
<path d="M14.9194 16.7499L14.5546 18.2747C14.3798 19.0071 13.7328 19.5382 12.9681 19.5952L12.8312 19.5999H11.1687C10.3916 19.5999 9.7105 19.1097 9.48155 18.401L9.44545 18.2747L9.0816 16.7499H14.9194ZM12 4.3999C15.1483 4.3999 17.7 6.86705 17.7 9.9099C17.7 11.5031 16.9922 12.9651 15.6062 14.2742C15.5461 14.3309 15.4991 14.3999 15.4685 14.4766L15.4438 14.5535L15.1455 15.7999H12.476V11.5221C12.476 11.3961 12.4259 11.2753 12.3368 11.1862C12.2477 11.0971 12.1269 11.0471 12.001 11.0471C11.875 11.0471 11.7542 11.0971 11.6651 11.1862C11.576 11.2753 11.526 11.3961 11.526 11.5221V15.7999H8.8536L8.55625 14.5545C8.53086 14.4473 8.47473 14.3499 8.39475 14.2742C7.07425 13.0278 6.3684 11.6427 6.30475 10.137L6.3 9.9099L6.30285 9.72845C6.4026 6.7692 8.91535 4.3999 12 4.3999ZM11.525 8.6768V9.6287C11.525 9.75468 11.575 9.8755 11.6641 9.96458C11.7532 10.0537 11.874 10.1037 12 10.1037C12.126 10.1037 12.2468 10.0537 12.3359 9.96458C12.425 9.8755 12.475 9.75468 12.475 9.6287V8.6768C12.475 8.55082 12.425 8.43001 12.3359 8.34093C12.2468 8.25185 12.126 8.2018 12 8.2018C11.874 8.2018 11.7532 8.25185 11.6641 8.34093C11.575 8.43001 11.525 8.55082 11.525 8.6768ZM14.7075 9.57075C14.6184 9.4817 14.4976 9.43168 14.3717 9.43168C14.2457 9.43168 14.1249 9.4817 14.0358 9.57075L13.3633 10.2443C13.2767 10.3339 13.2288 10.4539 13.2299 10.5784C13.231 10.703 13.281 10.8221 13.369 10.9102C13.4571 10.9982 13.5762 11.0482 13.7008 11.0493C13.8253 11.0504 13.9453 11.0025 14.0349 10.916L14.7085 10.2424C14.7975 10.1533 14.8475 10.0325 14.8475 9.90658C14.8475 9.78063 14.7965 9.65983 14.7075 9.57075ZM9.96035 9.57075C9.91653 9.52539 9.86412 9.4892 9.80617 9.4643C9.74822 9.43941 9.68589 9.42631 9.62282 9.42576C9.55975 9.42521 9.4972 9.43723 9.43882 9.46111C9.38045 9.485 9.32741 9.52027 9.28281 9.56487C9.23821 9.60946 9.20294 9.6625 9.17906 9.72087C9.15518 9.77925 9.14316 9.8418 9.14371 9.90487C9.14425 9.96794 9.15736 10.0303 9.18225 10.0882C9.20715 10.1462 9.24333 10.1986 9.2887 10.2424L9.9613 10.916C10.0051 10.9613 10.0575 10.9975 10.1155 11.0224C10.1734 11.0473 10.2358 11.0604 10.2988 11.0609C10.3619 11.0615 10.4245 11.0495 10.4828 11.0256C10.5412 11.0017 10.5942 10.9664 10.6388 10.9218C10.6834 10.8772 10.7187 10.8242 10.7426 10.7658C10.7665 10.7075 10.7785 10.6449 10.7779 10.5818C10.7774 10.5188 10.7643 10.4564 10.7394 10.3985C10.7145 10.3405 10.6783 10.2881 10.6329 10.2443L9.96035 9.57075Z" fill="white"/>
</svg>
