<svg width="47" height="47" viewBox="0 0 47 47" fill="none" xmlns="http://www.w3.org/2000/svg">
<circle cx="23.5" cy="23.5" r="23.5" fill="#0075FF"/>
<path fill-rule="evenodd" clip-rule="evenodd" d="M17.3333 14.3076H28.6666C32.673 14.3076 34.6776 14.3076 35.9214 15.5247C37.1666 16.7404 37.1666 18.6996 37.1666 22.6153V25.3845C37.1666 29.3002 37.1666 31.2595 35.9214 32.4752C34.6776 33.6922 32.673 33.6922 28.6666 33.6922H17.3333C13.327 33.6922 11.3224 33.6922 10.0786 32.4752C8.83331 31.2595 8.83331 29.3002 8.83331 25.3845V22.6153C8.83331 18.6996 8.83331 16.7404 10.0786 15.5247C11.3224 14.3076 13.327 14.3076 17.3333 14.3076ZM14.5 21.2307C14.8757 21.2307 15.236 21.0848 15.5017 20.8251C15.7674 20.5655 15.9166 20.2133 15.9166 19.8461C15.9166 19.4789 15.7674 19.1267 15.5017 18.867C15.236 18.6073 14.8757 18.4615 14.5 18.4615C14.1243 18.4615 13.7639 18.6073 13.4982 18.867C13.2326 19.1267 13.0833 19.4789 13.0833 19.8461C13.0833 20.2133 13.2326 20.5655 13.4982 20.8251C13.7639 21.0848 14.1243 21.2307 14.5 21.2307ZM14.5 25.3845C14.8757 25.3845 15.236 25.2387 15.5017 24.979C15.7674 24.7193 15.9166 24.3671 15.9166 23.9999C15.9166 23.6327 15.7674 23.2805 15.5017 23.0209C15.236 22.7612 14.8757 22.6153 14.5 22.6153C14.1243 22.6153 13.7639 22.7612 13.4982 23.0209C13.2326 23.2805 13.0833 23.6327 13.0833 23.9999C13.0833 24.3671 13.2326 24.7193 13.4982 24.979C13.7639 25.2387 14.1243 25.3845 14.5 25.3845ZM18.75 25.3845C19.1257 25.3845 19.486 25.2387 19.7517 24.979C20.0174 24.7193 20.1666 24.3671 20.1666 23.9999C20.1666 23.6327 20.0174 23.2805 19.7517 23.0209C19.486 22.7612 19.1257 22.6153 18.75 22.6153C18.3743 22.6153 18.0139 22.7612 17.7482 23.0209C17.4826 23.2805 17.3333 23.6327 17.3333 23.9999C17.3333 24.3671 17.4826 24.7193 17.7482 24.979C18.0139 25.2387 18.3743 25.3845 18.75 25.3845ZM18.75 21.2307C19.1257 21.2307 19.486 21.0848 19.7517 20.8251C20.0174 20.5655 20.1666 20.2133 20.1666 19.8461C20.1666 19.4789 20.0174 19.1267 19.7517 18.867C19.486 18.6073 19.1257 18.4615 18.75 18.4615C18.3743 18.4615 18.0139 18.6073 17.7482 18.867C17.4826 19.1267 17.3333 19.4789 17.3333 19.8461C17.3333 20.2133 17.4826 20.5655 17.7482 20.8251C18.0139 21.0848 18.3743 21.2307 18.75 21.2307ZM23 21.2307C23.3757 21.2307 23.736 21.0848 24.0017 20.8251C24.2674 20.5655 24.4166 20.2133 24.4166 19.8461C24.4166 19.4789 24.2674 19.1267 24.0017 18.867C23.736 18.6073 23.3757 18.4615 23 18.4615C22.6243 18.4615 22.2639 18.6073 21.9982 18.867C21.7326 19.1267 21.5833 19.4789 21.5833 19.8461C21.5833 20.2133 21.7326 20.5655 21.9982 20.8251C22.2639 21.0848 22.6243 21.2307 23 21.2307ZM23 25.3845C23.3757 25.3845 23.736 25.2387 24.0017 24.979C24.2674 24.7193 24.4166 24.3671 24.4166 23.9999C24.4166 23.6327 24.2674 23.2805 24.0017 23.0209C23.736 22.7612 23.3757 22.6153 23 22.6153C22.6243 22.6153 22.2639 22.7612 21.9982 23.0209C21.7326 23.2805 21.5833 23.6327 21.5833 23.9999C21.5833 24.3671 21.7326 24.7193 21.9982 24.979C22.2639 25.2387 22.6243 25.3845 23 25.3845ZM27.25 21.2307C27.6257 21.2307 27.986 21.0848 28.2517 20.8251C28.5174 20.5655 28.6666 20.2133 28.6666 19.8461C28.6666 19.4789 28.5174 19.1267 28.2517 18.867C27.986 18.6073 27.6257 18.4615 27.25 18.4615C26.8743 18.4615 26.5139 18.6073 26.2482 18.867C25.9826 19.1267 25.8333 19.4789 25.8333 19.8461C25.8333 20.2133 25.9826 20.5655 26.2482 20.8251C26.5139 21.0848 26.8743 21.2307 27.25 21.2307ZM27.25 25.3845C27.6257 25.3845 27.986 25.2387 28.2517 24.979C28.5174 24.7193 28.6666 24.3671 28.6666 23.9999C28.6666 23.6327 28.5174 23.2805 28.2517 23.0209C27.986 22.7612 27.6257 22.6153 27.25 22.6153C26.8743 22.6153 26.5139 22.7612 26.2482 23.0209C25.9826 23.2805 25.8333 23.6327 25.8333 23.9999C25.8333 24.3671 25.9826 24.7193 26.2482 24.979C26.5139 25.2387 26.8743 25.3845 27.25 25.3845ZM31.5 21.2307C31.8757 21.2307 32.236 21.0848 32.5017 20.8251C32.7674 20.5655 32.9166 20.2133 32.9166 19.8461C32.9166 19.4789 32.7674 19.1267 32.5017 18.867C32.236 18.6073 31.8757 18.4615 31.5 18.4615C31.1243 18.4615 30.7639 18.6073 30.4982 18.867C30.2326 19.1267 30.0833 19.4789 30.0833 19.8461C30.0833 20.2133 30.2326 20.5655 30.4982 20.8251C30.7639 21.0848 31.1243 21.2307 31.5 21.2307ZM31.5 25.3845C31.8757 25.3845 32.236 25.2387 32.5017 24.979C32.7674 24.7193 32.9166 24.3671 32.9166 23.9999C32.9166 23.6327 32.7674 23.2805 32.5017 23.0209C32.236 22.7612 31.8757 22.6153 31.5 22.6153C31.1243 22.6153 30.7639 22.7612 30.4982 23.0209C30.2326 23.2805 30.0833 23.6327 30.0833 23.9999C30.0833 24.3671 30.2326 24.7193 30.4982 24.979C30.7639 25.2387 31.1243 25.3845 31.5 25.3845ZM31.1458 29.5384C31.1458 29.8138 31.0339 30.0779 30.8346 30.2727C30.6354 30.4674 30.3651 30.5768 30.0833 30.5768H15.9166C15.6349 30.5768 15.3646 30.4674 15.1653 30.2727C14.9661 30.0779 14.8541 29.8138 14.8541 29.5384C14.8541 29.263 14.9661 28.9988 15.1653 28.8041C15.3646 28.6093 15.6349 28.4999 15.9166 28.4999H30.0833C30.3651 28.4999 30.6354 28.6093 30.8346 28.8041C31.0339 28.9988 31.1458 29.263 31.1458 29.5384Z" fill="white"/>
</svg>
