<svg width="41" height="42" viewBox="0 0 41 42" fill="none" xmlns="http://www.w3.org/2000/svg">
<g filter="url(#filter0_ddii_488_1187)">
<circle cx="20.5" cy="17.5" r="16.5" fill="#222222"/>
</g>
<path d="M27.8843 10.8348C29.3956 11.9089 30.5573 13.426 31.2356 15.1818C31.496 15.8558 31.0504 16.6233 30.2765 16.7791L15.0093 19.853C14.2494 20.0059 13.5856 19.4857 13.5893 18.7644C13.5992 16.8663 14.1435 14.9985 15.1733 13.4056C16.5413 11.2894 18.651 9.83574 21.0328 9.3562C23.4137 8.87685 25.8774 9.40848 27.8843 10.8348Z" fill="#0075FF" stroke="#0062D5"/>
<path d="M27.4102 17.1543C27.4004 19.0523 26.8561 20.9202 25.8263 22.5131C24.4582 24.6293 22.3485 26.0829 19.9667 26.5625C17.5859 27.0418 15.1222 26.5102 13.1152 25.0839C11.6039 24.0098 10.4422 22.4927 9.76391 20.7368C9.50353 20.0628 9.94911 19.2954 10.723 19.1395L25.9902 16.0657C26.7501 15.9127 27.4139 16.433 27.4102 17.1543Z" fill="#0075FF" fill-opacity="0.3" stroke="#0075FF"/>
<defs>
<filter id="filter0_ddii_488_1187" x="0" y="0" width="41" height="42" filterUnits="userSpaceOnUse" color-interpolation-filters="sRGB">
<feFlood flood-opacity="0" result="BackgroundImageFix"/>
<feColorMatrix in="SourceAlpha" type="matrix" values="0 0 0 0 0 0 0 0 0 0 0 0 0 0 0 0 0 0 127 0" result="hardAlpha"/>
<feOffset dy="4"/>
<feGaussianBlur stdDeviation="2"/>
<feComposite in2="hardAlpha" operator="out"/>
<feColorMatrix type="matrix" values="0 0 0 0 0.0313726 0 0 0 0 0.0313726 0 0 0 0 0.0313726 0 0 0 0.08 0"/>
<feBlend mode="normal" in2="BackgroundImageFix" result="effect1_dropShadow_488_1187"/>
<feColorMatrix in="SourceAlpha" type="matrix" values="0 0 0 0 0 0 0 0 0 0 0 0 0 0 0 0 0 0 127 0" result="hardAlpha"/>
<feOffset dy="1"/>
<feGaussianBlur stdDeviation="1"/>
<feComposite in2="hardAlpha" operator="out"/>
<feColorMatrix type="matrix" values="0 0 0 0 0.0313726 0 0 0 0 0.0313726 0 0 0 0 0.0313726 0 0 0 0.2 0"/>
<feBlend mode="normal" in2="effect1_dropShadow_488_1187" result="effect2_dropShadow_488_1187"/>
<feBlend mode="normal" in="SourceGraphic" in2="effect2_dropShadow_488_1187" result="shape"/>
<feColorMatrix in="SourceAlpha" type="matrix" values="0 0 0 0 0 0 0 0 0 0 0 0 0 0 0 0 0 0 127 0" result="hardAlpha"/>
<feOffset dy="4"/>
<feGaussianBlur stdDeviation="4"/>
<feComposite in2="hardAlpha" operator="arithmetic" k2="-1" k3="1"/>
<feColorMatrix type="matrix" values="0 0 0 0 1 0 0 0 0 1 0 0 0 0 1 0 0 0 0.06 0"/>
<feBlend mode="normal" in2="shape" result="effect3_innerShadow_488_1187"/>
<feColorMatrix in="SourceAlpha" type="matrix" values="0 0 0 0 0 0 0 0 0 0 0 0 0 0 0 0 0 0 127 0" result="hardAlpha"/>
<feOffset dy="1"/>
<feGaussianBlur stdDeviation="0.5"/>
<feComposite in2="hardAlpha" operator="arithmetic" k2="-1" k3="1"/>
<feColorMatrix type="matrix" values="0 0 0 0 1 0 0 0 0 1 0 0 0 0 1 0 0 0 0.12 0"/>
<feBlend mode="normal" in2="effect3_innerShadow_488_1187" result="effect4_innerShadow_488_1187"/>
</filter>
</defs>
</svg>
