<svg width="27" height="27" viewBox="0 0 27 27" fill="none" xmlns="http://www.w3.org/2000/svg">
<rect x="0.5" y="0.5" width="26" height="26" rx="13" stroke="#717171"/>
<path d="M6.875 13.875H6.88375M13 13.875H13.0088M19.125 13.875H19.1338M7.75 13.875C7.75 14.3582 7.35825 14.75 6.875 14.75C6.39175 14.75 6 14.3582 6 13.875C6 13.3918 6.39175 13 6.875 13C7.35825 13 7.75 13.3918 7.75 13.875ZM13.875 13.875C13.875 14.3582 13.4832 14.75 13 14.75C12.5168 14.75 12.125 14.3582 12.125 13.875C12.125 13.3918 12.5168 13 13 13C13.4832 13 13.875 13.3918 13.875 13.875ZM20 13.875C20 14.3582 19.6082 14.75 19.125 14.75C18.6418 14.75 18.25 14.3582 18.25 13.875C18.25 13.3918 18.6418 13 19.125 13C19.6082 13 20 13.3918 20 13.875Z" stroke="#717171" stroke-width="1.67" stroke-linecap="round" stroke-linejoin="round"/>
</svg>
