<svg width="47" height="47" viewBox="0 0 47 47" fill="none" xmlns="http://www.w3.org/2000/svg">
<circle cx="23.5" cy="23.5" r="23.5" fill="#0075FF"/>
<path fill-rule="evenodd" clip-rule="evenodd" d="M12.061 19.9023C12.3424 19.9023 12.6122 20.0141 12.8112 20.2131C13.0102 20.4121 13.122 20.6819 13.122 20.9633V22.378C13.122 23.7248 13.3872 25.0585 13.9026 26.3028C14.4181 27.5471 15.1735 28.6777 16.1259 29.6301C17.0783 30.5825 18.2089 31.3379 19.4532 31.8534C20.6975 32.3688 22.0312 32.6341 23.378 32.6341C24.7249 32.6341 26.0586 32.3688 27.3029 31.8534C28.5472 31.3379 29.6778 30.5825 30.6302 29.6301C31.5826 28.6777 32.338 27.5471 32.8534 26.3028C33.3689 25.0585 33.6341 23.7248 33.6341 22.378V20.9633C33.6341 20.6819 33.7459 20.4121 33.9449 20.2131C34.1439 20.0141 34.4137 19.9023 34.6951 19.9023C34.9765 19.9023 35.2464 20.0141 35.4453 20.2131C35.6443 20.4121 35.7561 20.6819 35.7561 20.9633V22.378C35.7562 25.4772 34.5936 28.4637 32.4981 30.7472C30.4027 33.0307 27.5269 34.4451 24.439 34.7107V37.9389C24.439 38.2203 24.3272 38.4902 24.1283 38.6892C23.9293 38.8881 23.6594 38.9999 23.378 38.9999C23.0967 38.9999 22.8268 38.8881 22.6278 38.6892C22.4289 38.4902 22.3171 38.2203 22.3171 37.9389V34.7107C19.2292 34.4451 16.3534 33.0307 14.2579 30.7472C12.1625 28.4637 10.9999 25.4772 11 22.378V20.9633C11 20.6819 11.1118 20.4121 11.3108 20.2131C11.5097 20.0141 11.7796 19.9023 12.061 19.9023Z" fill="white"/>
<path fill-rule="evenodd" clip-rule="evenodd" d="M23.378 10C21.2207 10 19.1518 10.857 17.6263 12.3824C16.1009 13.9079 15.2439 15.9768 15.2439 18.1341V22.378C15.2439 24.5354 16.1009 26.6043 17.6263 28.1298C19.1518 29.6552 21.2207 30.5122 23.378 30.5122C25.5354 30.5122 27.6043 29.6552 29.1298 28.1298C30.6552 26.6043 31.5122 24.5354 31.5122 22.378V18.1341C31.5122 15.9768 30.6552 13.9079 29.1298 12.3824C27.6043 10.857 25.5354 10 23.378 10ZM26.2073 23.439C26.4887 23.439 26.7586 23.3272 26.9575 23.1283C27.1565 22.9293 27.2683 22.6594 27.2683 22.378C27.2683 22.0967 27.1565 21.8268 26.9575 21.6278C26.7586 21.4289 26.4887 21.3171 26.2073 21.3171H20.5488C20.2674 21.3171 19.9975 21.4289 19.7986 21.6278C19.5996 21.8268 19.4878 22.0967 19.4878 22.378C19.4878 22.6594 19.5996 22.9293 19.7986 23.1283C19.9975 23.3272 20.2674 23.439 20.5488 23.439H26.2073ZM25.8537 18.1341C25.8537 18.4155 25.7419 18.6854 25.5429 18.8844C25.3439 19.0833 25.0741 19.1951 24.7927 19.1951H21.9634C21.682 19.1951 21.4122 19.0833 21.2132 18.8844C21.0142 18.6854 20.9024 18.4155 20.9024 18.1341C20.9024 17.8528 21.0142 17.5829 21.2132 17.3839C21.4122 17.185 21.682 17.0732 21.9634 17.0732H24.7927C25.0741 17.0732 25.3439 17.185 25.5429 17.3839C25.7419 17.5829 25.8537 17.8528 25.8537 18.1341Z" fill="white"/>
</svg>
