<svg width="358" height="160" viewBox="0 0 358 160" fill="none" xmlns="http://www.w3.org/2000/svg">
<path d="M216.981 176.195C198.495 166.458 162.895 184.699 153.956 202.91C143.837 223.541 181.059 256.984 188.255 260.588C194.455 263.697 183.365 219.765 202.195 210.758C222.65 200.969 243.929 221.424 246.512 216.497C249.277 211.211 238.654 187.635 216.981 176.195Z" stroke="#233D32" stroke-miterlimit="10"/>
<path d="M215.514 170.767C196.221 158.087 155.642 181.011 146.407 201.877C135.715 226.001 179.073 258.985 186.912 265.304C192.623 269.886 186.311 224.548 207.277 212.568C229.64 199.793 252.309 215.825 251.197 211.375C251.917 206.792 238.514 185.876 215.514 170.767Z" stroke="#233D32" stroke-miterlimit="10"/>
<path d="M214.063 165.327C193.932 149.747 148.414 177.321 138.874 200.85C127.664 228.45 174.668 263.86 185.59 270.021C192.433 273.88 189.288 229.353 212.365 214.393C236.652 198.653 260.382 210.067 255.909 206.251C254.217 202.174 238.347 184.133 214.063 165.327Z" stroke="#233D32" stroke-miterlimit="10"/>
<path d="M212.589 159.905C191.615 141.444 141.177 173.651 131.299 199.817C119.557 230.911 172.062 265.553 184.229 274.731C191.06 279.878 192.227 234.167 217.421 216.211C243.629 197.5 267.769 205.54 260.584 201.116C255.985 198.279 238.166 182.413 212.589 159.905Z" stroke="#233D32" stroke-miterlimit="10"/>
<path d="M211.13 154.478C189.289 133.147 133.952 169.979 123.749 198.784C111.49 233.38 173.763 263.858 182.873 279.464C187.602 287.544 195.185 239.013 222.487 218.041C250.65 196.419 276.123 199.745 265.262 196C258.523 193.653 237.977 180.707 211.13 154.478Z" stroke="#233D32" stroke-miterlimit="10"/>
<path d="M209.664 149.05C186.96 124.855 126.749 166.296 116.192 197.751C103.43 235.85 172.268 265.36 181.547 284.16C186.085 293.358 198.168 243.834 227.574 219.841C257.689 195.27 284.357 193.837 269.972 190.851C260.949 188.98 237.78 179.008 209.664 149.05Z" stroke="#233D32" stroke-miterlimit="10"/>
<path d="M208.201 143.618C184.622 116.567 119.532 162.642 108.638 196.72C95.3623 238.311 170.868 266.855 180.203 288.874C184.582 299.198 201.156 248.667 232.651 221.66C264.711 194.165 292.5 187.946 274.665 185.72C263.324 184.3 237.564 177.309 208.201 143.618Z" stroke="#233D32" stroke-miterlimit="10"/>
<path d="M206.739 138.188C182.281 108.284 112.312 158.96 101.085 195.69C87.3023 240.781 169.521 268.368 178.856 293.593C183.097 305.059 204.136 253.516 237.721 223.48C271.739 193.059 300.603 182.079 279.359 180.592C265.663 179.625 237.355 175.627 206.739 138.188Z" stroke="#233D32" stroke-miterlimit="10"/>
<path d="M205.272 132.76C179.903 99.9964 105.104 155.287 93.5346 194.657C79.2431 243.236 168.244 269.877 177.52 298.302C181.64 310.922 207.127 258.354 242.799 225.293C278.776 191.95 308.704 176.226 284.057 175.452C267.987 174.955 237.131 173.943 205.272 132.76Z" stroke="#233D32" stroke-miterlimit="10"/>
<path d="M203.81 127.328C177.579 91.7183 97.8903 151.605 85.9809 193.627C71.1996 245.719 167.003 271.422 176.177 303.018C180.188 316.801 210.122 263.204 247.877 227.113C285.818 190.845 316.772 170.373 288.751 170.323C270.299 170.288 236.899 172.258 203.81 127.328Z" stroke="#233D32" stroke-miterlimit="10"/>
<path d="M202.347 121.897C175.227 83.4372 90.6958 147.947 78.4271 192.597C63.1535 248.19 165.76 272.942 174.845 307.724C178.744 322.68 213.108 268.053 252.963 228.92C292.867 189.733 324.85 164.524 293.456 165.184C272.611 165.627 236.668 170.573 202.347 121.897Z" stroke="#233D32" stroke-miterlimit="10"/>
<path d="M200.881 116.47C172.867 75.1558 83.4763 144.291 70.8777 191.564C55.1079 250.662 164.548 274.491 173.498 312.45C177.301 328.586 216.114 272.901 258.033 230.747C299.952 188.592 332.906 158.696 298.154 160.052C274.916 160.967 236.429 168.895 200.881 116.47Z" stroke="#233D32" stroke-miterlimit="10"/>
<path d="M199.419 111.039C170.507 66.874 76.2922 140.605 63.3208 190.53C47.0461 253.146 163.337 276.065 172.151 317.162C175.862 334.487 219.112 277.747 263.108 232.563C306.945 187.533 340.964 152.87 302.837 154.925C277.217 156.309 236.194 167.214 199.419 111.039Z" stroke="#233D32" stroke-miterlimit="10"/>
<path d="M197.955 105.607C168.147 58.5912 69.1866 136.96 55.776 189.511C39.149 255.646 162.184 277.629 170.821 321.885C174.436 340.404 222.122 282.609 268.191 234.39C313.999 186.443 349.035 147.053 307.543 149.804C279.517 151.651 235.943 165.53 197.955 105.607Z" stroke="#233D32" stroke-miterlimit="10"/>
<path d="M196.489 100.179C165.784 50.3134 61.9798 133.287 48.2209 188.464C31.0754 258.108 161.021 279.165 169.476 326.583C173.005 346.3 225.122 287.442 273.272 236.182C321.057 185.318 357.095 141.207 312.247 144.647C281.818 146.994 235.701 163.848 196.489 100.179Z" stroke="#233D32" stroke-miterlimit="10"/>
<path d="M195.027 94.7481C163.404 42.0148 54.7653 129.612 40.6632 187.437C23.0467 260.551 159.826 280.758 168.129 331.301C171.576 352.239 228.205 292.384 278.334 238.008C328.18 184.312 365.137 135.395 316.925 139.53C284.115 142.339 235.452 162.165 195.027 94.7481Z" stroke="#233D32" stroke-miterlimit="10"/>
<path d="M193.565 89.3174C160.953 33.8076 47.5508 125.938 33.1094 186.407C14.9665 263.037 158.661 282.341 166.789 336.021C170.137 358.141 231.19 297.215 283.412 239.829C335.211 183.195 373.187 129.577 321.619 134.394C286.412 137.685 235.078 160.557 193.565 89.3174Z" stroke="#233D32" stroke-miterlimit="10"/>
<path d="M192.098 83.8885C158.608 25.512 40.3463 122.268 25.5553 185.376C6.90638 265.499 157.503 283.923 165.445 340.736C168.707 364.061 234.186 302.042 288.486 241.644C342.242 182.077 381.244 123.758 326.312 129.264C288.679 133.034 234.855 158.857 192.098 83.8885Z" stroke="#233D32" stroke-miterlimit="10"/>
<path d="M190.635 78.4574C156.264 17.2172 33.1287 118.59 18.0055 184.343C-1.13814 267.956 156.347 285.517 164.106 345.448C167.28 369.985 237.179 306.906 293.548 243.47C349.246 180.95 389.274 117.85 330.998 124.141C290.994 128.305 234.636 157.156 190.635 78.4574Z" stroke="#233D32" stroke-miterlimit="10"/>
<path d="M189.173 73.0269C153.933 8.91341 25.901 114.907 10.4522 183.314C-9.20602 270.433 155.193 287.112 162.779 350.151C165.869 375.905 240.167 311.709 298.654 245.268C356.31 179.84 397.342 112.077 335.708 119C293.291 123.691 234.405 155.479 189.173 73.0269Z" stroke="#233D32" stroke-miterlimit="10"/>
<path d="M340.398 113.866C295.591 119.073 234.192 153.752 187.707 67.5987C151.573 0.624073 18.7038 111.238 2.89492 182.28C-17.2667 272.902 154.037 288.705 161.423 354.876C167.391 408.39 471.434 98.6339 340.398 113.866Z" stroke="#233D32" stroke-miterlimit="10"/>
</svg>
